<svg width="150" height="150" viewBox="0 0 150 150" fill="none" xmlns="http://www.w3.org/2000/svg">
    <rect width="150" height="150" rx="15" fill="#E1E1E1"/>
    <path d="M43.2109 59.3066L30.9727 93H25.9707L40.0625 56.0312H43.2871L43.2109 59.3066ZM53.4688 93L41.2051 59.3066L41.1289 56.0312H44.3535L58.4961 93H53.4688ZM52.834 79.3145V83.3262H32.0645V79.3145H52.834ZM77.082 78.502H67.2051V74.5156H77.082C78.9948 74.5156 80.5436 74.2109 81.7285 73.6016C82.9134 72.9922 83.7767 72.1458 84.3184 71.0625C84.877 69.9792 85.1562 68.7435 85.1562 67.3555C85.1562 66.0859 84.877 64.8926 84.3184 63.7754C83.7767 62.6582 82.9134 61.7611 81.7285 61.084C80.5436 60.39 78.9948 60.043 77.082 60.043H68.3477V93H63.4473V56.0312H77.082C79.875 56.0312 82.2363 56.5137 84.166 57.4785C86.0957 58.4434 87.5599 59.7806 88.5586 61.4902C89.5573 63.1829 90.0566 65.1211 90.0566 67.3047C90.0566 69.6745 89.5573 71.6973 88.5586 73.373C87.5599 75.0488 86.0957 76.3268 84.166 77.207C82.2363 78.0703 79.875 78.502 77.082 78.502ZM109.887 78.502H100.01V74.5156H109.887C111.799 74.5156 113.348 74.2109 114.533 73.6016C115.718 72.9922 116.581 72.1458 117.123 71.0625C117.682 69.9792 117.961 68.7435 117.961 67.3555C117.961 66.0859 117.682 64.8926 117.123 63.7754C116.581 62.6582 115.718 61.7611 114.533 61.084C113.348 60.39 111.799 60.043 109.887 60.043H101.152V93H96.252V56.0312H109.887C112.68 56.0312 115.041 56.5137 116.971 57.4785C118.9 58.4434 120.365 59.7806 121.363 61.4902C122.362 63.1829 122.861 65.1211 122.861 67.3047C122.861 69.6745 122.362 71.6973 121.363 73.373C120.365 75.0488 118.9 76.3268 116.971 77.207C115.041 78.0703 112.68 78.502 109.887 78.502Z" fill="black"/>
</svg>
