<svg width="150" height="150" viewBox="0 0 150 150" fill="none" xmlns="http://www.w3.org/2000/svg">
    <rect width="150" height="150" rx="15" fill="#303F9F"/>
    <path d="M92.8594 86.2969H101.859C101.391 90.6094 100.156 94.4688 98.1562 97.875C96.1562 101.281 93.3281 103.984 89.6719 105.984C86.0156 107.953 81.4531 108.938 75.9844 108.938C71.9844 108.938 68.3438 108.188 65.0625 106.688C61.8125 105.188 59.0156 103.062 56.6719 100.312C54.3281 97.5312 52.5156 94.2031 51.2344 90.3281C49.9844 86.4219 49.3594 82.0781 49.3594 77.2969V70.5C49.3594 65.7188 49.9844 61.3906 51.2344 57.5156C52.5156 53.6094 54.3438 50.2656 56.7188 47.4844C59.125 44.7031 62.0156 42.5625 65.3906 41.0625C68.7656 39.5625 72.5625 38.8125 76.7812 38.8125C81.9375 38.8125 86.2969 39.7812 89.8594 41.7188C93.4219 43.6562 96.1875 46.3438 98.1562 49.7812C100.156 53.1875 101.391 57.1406 101.859 61.6406H92.8594C92.4219 58.4531 91.6094 55.7188 90.4219 53.4375C89.2344 51.125 87.5469 49.3438 85.3594 48.0938C83.1719 46.8438 80.3125 46.2188 76.7812 46.2188C73.75 46.2188 71.0781 46.7969 68.7656 47.9531C66.4844 49.1094 64.5625 50.75 63 52.875C61.4688 55 60.3125 57.5469 59.5312 60.5156C58.75 63.4844 58.3594 66.7812 58.3594 70.4062V77.2969C58.3594 80.6406 58.7031 83.7812 59.3906 86.7188C60.1094 89.6562 61.1875 92.2344 62.625 94.4531C64.0625 96.6719 65.8906 98.4219 68.1094 99.7031C70.3281 100.953 72.9531 101.578 75.9844 101.578C79.8281 101.578 82.8906 100.969 85.1719 99.75C87.4531 98.5312 89.1719 96.7812 90.3281 94.5C91.5156 92.2188 92.3594 89.4844 92.8594 86.2969Z" fill="white"/>
</svg>
